# 3ds Max Wavefront OBJ Exporter v0.97b - (c)2007 guruware
# File Created: 26.03.2016 16:02:02

#
# object Box001
#

v  140.7262 -26.2759 -290.3862
v  140.7262 15.1527 -290.3862
v  65.3907 15.1527 -282.4567
v  65.3907 -26.2759 -282.4567
v  -5.3256 15.1527 -255.2992
v  -5.3256 -26.2759 -255.2992
v  -66.6033 15.1527 -210.7643
v  -66.6033 -26.2759 -210.7643
v  -114.2666 15.1527 -151.8870
v  -114.2666 -26.2759 -151.8870
v  -145.0673 15.1527 -82.6798
v  -145.0673 -26.2759 -82.6798
v  -156.9063 15.1527 -7.8589
v  -156.9063 -26.2759 -7.8589
v  -148.9768 15.1527 67.4766
v  -148.9768 -26.2759 67.4766
v  -121.8193 15.1527 138.1928
v  -121.8193 -26.2759 138.1928
v  -77.2844 15.1527 199.4706
v  -77.2844 -26.2759 199.4706
v  -18.4072 15.1527 247.1339
v  -18.4072 -26.2759 247.1339
v  50.8001 15.1527 277.9345
v  50.8001 -26.2759 277.9345
v  125.6209 15.1527 289.7735
v  125.6209 -26.2759 289.7735
v  200.9564 15.1527 281.8441
v  200.9564 -26.2759 281.8441
v  271.6727 15.1527 254.6865
v  271.6727 -26.2759 254.6865
v  332.9504 15.1527 210.1516
v  332.9504 -26.2759 210.1516
v  380.6137 15.1527 151.2744
v  380.6137 -26.2759 151.2744
v  411.4144 15.1527 82.0672
v  411.4144 -26.2759 82.0672
v  423.2534 15.1527 7.2463
v  423.2534 -26.2759 7.2463
v  415.3239 15.1527 -68.0893
v  415.3239 -26.2759 -68.0893
v  388.1664 15.1527 -138.8055
v  388.1664 -26.2759 -138.8055
v  343.6315 15.1527 -200.0833
v  343.6315 -26.2759 -200.0833
v  284.7543 15.1527 -247.7466
v  284.7543 -26.2759 -247.7466
v  215.5470 15.1527 -278.5472
v  215.5470 -26.2759 -278.5472
v  143.3810 -5.5822 -392.3506
v  41.5647 -5.5823 -381.6339
v  41.5647 -5.5409 -381.6339
v  143.3810 -5.5409 -392.3506
v  -54.0087 -5.5823 -344.9304
v  -54.0087 -5.5409 -344.9304
v  -136.8259 -5.5823 -284.7413
v  -136.8259 -5.5409 -284.7413
v  -201.2431 -5.5823 -205.1684
v  -201.2431 -5.5409 -205.1684
v  -242.8703 -5.5823 -111.6345
v  -242.8703 -5.5409 -111.6345
v  -258.8708 -5.5823 -10.5138
v  -258.8708 -5.5409 -10.5138
v  -248.1540 -5.5823 91.3026
v  -248.1540 -5.5409 91.3026
v  -211.4505 -5.5823 186.8759
v  -211.4505 -5.5409 186.8759
v  -151.2614 -5.5823 269.6931
v  -151.2614 -5.5409 269.6931
v  -71.6885 -5.5823 334.1103
v  -71.6885 -5.5410 334.1103
v  21.8454 -5.5823 375.7375
v  21.8454 -5.5410 375.7375
v  122.9661 -5.5823 391.7380
v  122.9661 -5.5410 391.7380
v  224.7824 -5.5823 381.0213
v  224.7824 -5.5410 381.0213
v  320.3558 -5.5823 344.3177
v  320.3558 -5.5410 344.3177
v  403.1730 -5.5823 284.1287
v  403.1730 -5.5409 284.1287
v  467.5902 -5.5823 204.5558
v  467.5902 -5.5409 204.5558
v  509.2175 -5.5823 111.0219
v  509.2175 -5.5409 111.0219
v  525.2180 -5.5823 9.9011
v  525.2180 -5.5409 9.9011
v  514.5013 -5.5823 -91.9153
v  514.5013 -5.5409 -91.9153
v  477.7976 -5.5823 -187.4886
v  477.7976 -5.5409 -187.4886
v  417.6086 -5.5823 -270.3058
v  417.6086 -5.5409 -270.3058
v  338.0356 -5.5823 -334.7230
v  338.0356 -5.5409 -334.7230
v  244.5017 -5.5823 -376.3503
v  244.5017 -5.5409 -376.3503
v  143.3810 -5.5822 -392.3507
v  143.3810 -5.5409 -392.3507
# 98 vertices

vn 0.1047 -0.0000 0.9945
vn 0.2336 -0.0000 0.9723
vn 0.4773 -0.0000 0.8787
vn 0.6885 -0.0000 0.7253
vn 0.8527 -0.0000 0.5224
vn 0.9589 -0.0000 0.2839
vn 0.9997 0.0000 0.0260
vn 0.9723 0.0000 -0.2336
vn 0.8787 0.0000 -0.4773
vn 0.7253 0.0000 -0.6885
vn 0.5224 0.0000 -0.8527
vn 0.2839 0.0000 -0.9589
vn 0.0260 0.0000 -0.9997
vn -0.2336 0.0000 -0.9723
vn -0.4773 0.0000 -0.8787
vn -0.6885 0.0000 -0.7253
vn -0.8527 0.0000 -0.5224
vn -0.9589 0.0000 -0.2839
vn -0.9997 -0.0000 -0.0260
vn -0.9723 -0.0000 0.2336
vn -0.8787 -0.0000 0.4773
vn -0.7253 -0.0000 0.6885
vn -0.5224 -0.0000 0.8527
vn -0.2839 -0.0000 0.9589
vn -0.1563 -0.0000 0.9877
vn -0.1047 0.0000 -0.9945
vn -0.0260 -0.0000 0.9997
vn 0.1563 0.0000 -0.9877
vn -0.0529 -0.8628 -0.5027
vn -0.1173 -0.8647 -0.4884
vn -0.2397 -0.8647 -0.4414
vn -0.3458 -0.8647 -0.3643
vn -0.4283 -0.8647 -0.2624
vn -0.4816 -0.8647 -0.1426
vn -0.5021 -0.8647 -0.0131
vn -0.4884 -0.8647 0.1173
vn -0.4414 -0.8647 0.2397
vn -0.3643 -0.8647 0.3458
vn -0.2624 -0.8647 0.4283
vn -0.1426 -0.8647 0.4816
vn -0.0131 -0.8647 0.5021
vn 0.1173 -0.8647 0.4884
vn 0.2397 -0.8647 0.4414
vn 0.3458 -0.8647 0.3643
vn 0.4283 -0.8647 0.2624
vn 0.4816 -0.8647 0.1426
vn 0.5021 -0.8647 0.0131
vn 0.4884 -0.8647 -0.1173
vn 0.4414 -0.8647 -0.2397
vn 0.3643 -0.8647 -0.3458
vn 0.2624 -0.8647 -0.4283
vn 0.1426 -0.8647 -0.4816
vn 0.0790 -0.8628 -0.4993
vn 0.0790 0.8628 -0.4993
vn 0.1426 0.8647 -0.4816
vn 0.2624 0.8647 -0.4283
vn 0.3643 0.8647 -0.3458
vn 0.4414 0.8647 -0.2397
vn 0.4884 0.8647 -0.1173
vn 0.5021 0.8647 0.0131
vn 0.4816 0.8647 0.1426
vn 0.4283 0.8647 0.2624
vn 0.3458 0.8647 0.3643
vn 0.2397 0.8647 0.4414
vn 0.1173 0.8647 0.4884
vn -0.0131 0.8647 0.5021
vn -0.1426 0.8647 0.4816
vn -0.2624 0.8647 0.4283
vn -0.3643 0.8647 0.3458
vn -0.4414 0.8647 0.2397
vn -0.4884 0.8647 0.1173
vn -0.5021 0.8647 -0.0131
vn -0.4816 0.8647 -0.1426
vn -0.4283 0.8647 -0.2624
vn -0.3458 0.8647 -0.3643
vn -0.2397 0.8647 -0.4414
vn -0.1173 0.8647 -0.4884
vn -0.0529 0.8628 -0.5027
# 78 vertex normals

vt 0.5557 0.1215 0.0000
vt 0.5557 0.2078 0.0000
vt 0.5326 0.2078 0.0000
vt 0.5326 0.1215 0.0000
vt 0.5095 0.2078 0.0000
vt 0.5095 0.1215 0.0000
vt 0.4865 0.2078 0.0000
vt 0.4865 0.1215 0.0000
vt 0.4634 0.2078 0.0000
vt 0.4634 0.1215 0.0000
vt 0.4403 0.2078 0.0000
vt 0.4403 0.1215 0.0000
vt 0.4173 0.2078 0.0000
vt 0.4173 0.1215 0.0000
vt 0.3942 0.2078 0.0000
vt 0.3942 0.1215 0.0000
vt 0.3711 0.2078 0.0000
vt 0.3711 0.1215 0.0000
vt 0.3481 0.2078 0.0000
vt 0.3481 0.1215 0.0000
vt 0.3250 0.2078 0.0000
vt 0.3250 0.1215 0.0000
vt 0.3019 0.2078 0.0000
vt 0.3019 0.1215 0.0000
vt 0.2788 0.2078 0.0000
vt 0.2788 0.1215 0.0000
vt 0.2558 0.2078 0.0000
vt 0.2558 0.1215 0.0000
vt 0.2327 0.2078 0.0000
vt 0.2327 0.1215 0.0000
vt 0.2096 0.2078 0.0000
vt 0.2096 0.1215 0.0000
vt 0.1866 0.2078 0.0000
vt 0.1866 0.1215 0.0000
vt 0.1635 0.2078 0.0000
vt 0.1635 0.1215 0.0000
vt 0.1404 0.2078 0.0000
vt 0.1404 0.1215 0.0000
vt 0.1174 0.2078 0.0000
vt 0.1174 0.1215 0.0000
vt 0.0943 0.2078 0.0000
vt 0.0943 0.1215 0.0000
vt 0.0712 0.2078 0.0000
vt 0.0712 0.1215 0.0000
vt 0.0481 0.2078 0.0000
vt 0.0481 0.1215 0.0000
vt 0.0251 0.2078 0.0000
vt 0.0251 0.1215 0.0000
vt 0.0020 0.2078 0.0000
vt 0.0020 0.1215 0.0000
vt 0.0020 0.2377 0.0000
vt 0.0028 0.2377 0.0000
vt 0.0028 0.2409 0.0000
vt 0.0020 0.2409 0.0000
vt 0.0037 0.2377 0.0000
vt 0.0037 0.2409 0.0000
vt 0.0045 0.2377 0.0000
vt 0.0045 0.2409 0.0000
vt 0.0054 0.2377 0.0000
vt 0.0054 0.2409 0.0000
vt 0.0062 0.2377 0.0000
vt 0.0062 0.2409 0.0000
vt 0.0071 0.2377 0.0000
vt 0.0071 0.2409 0.0000
vt 0.0079 0.2377 0.0000
vt 0.0079 0.2409 0.0000
vt 0.0088 0.2377 0.0000
vt 0.0088 0.2409 0.0000
vt 0.0096 0.2377 0.0000
vt 0.0096 0.2409 0.0000
vt 0.0105 0.2377 0.0000
vt 0.0105 0.2409 0.0000
vt 0.0113 0.2377 0.0000
vt 0.0113 0.2409 0.0000
vt 0.0122 0.2377 0.0000
vt 0.0122 0.2409 0.0000
vt 0.0130 0.2377 0.0000
vt 0.0130 0.2409 0.0000
vt 0.0139 0.2377 0.0000
vt 0.0139 0.2409 0.0000
vt 0.0147 0.2377 0.0000
vt 0.0147 0.2409 0.0000
vt 0.0156 0.2377 0.0000
vt 0.0156 0.2409 0.0000
vt 0.0164 0.2377 0.0000
vt 0.0164 0.2409 0.0000
vt 0.0172 0.2377 0.0000
vt 0.0172 0.2409 0.0000
vt 0.0181 0.2377 0.0000
vt 0.0181 0.2409 0.0000
vt 0.0189 0.2377 0.0000
vt 0.0189 0.2409 0.0000
vt 0.0198 0.2377 0.0000
vt 0.0198 0.2409 0.0000
vt 0.0206 0.2377 0.0000
vt 0.0206 0.2409 0.0000
vt 0.0215 0.2377 0.0000
vt 0.0215 0.2409 0.0000
vt 0.0223 0.2377 0.0000
vt 0.0223 0.2409 0.0000
vt 0.0020 0.0617 0.0000
vt 0.0435 0.0617 0.0000
vt 0.0435 0.1175 0.0000
vt 0.0020 0.1175 0.0000
vt 0.0850 0.0617 0.0000
vt 0.0850 0.1175 0.0000
vt 0.1265 0.0617 0.0000
vt 0.1265 0.1175 0.0000
vt 0.1680 0.0617 0.0000
vt 0.1680 0.1175 0.0000
vt 0.2095 0.0617 0.0000
vt 0.2095 0.1175 0.0000
vt 0.2510 0.0617 0.0000
vt 0.2510 0.1175 0.0000
vt 0.2925 0.0617 0.0000
vt 0.2925 0.1175 0.0000
vt 0.3340 0.0617 0.0000
vt 0.3340 0.1175 0.0000
vt 0.3755 0.0617 0.0000
vt 0.3755 0.1175 0.0000
vt 0.4170 0.0617 0.0000
vt 0.4170 0.1175 0.0000
vt 0.4585 0.0617 0.0000
vt 0.4585 0.1175 0.0000
vt 0.5000 0.0617 0.0000
vt 0.5000 0.1175 0.0000
vt 0.5415 0.0617 0.0000
vt 0.5415 0.1175 0.0000
vt 0.5830 0.0617 0.0000
vt 0.5830 0.1175 0.0000
vt 0.6245 0.0617 0.0000
vt 0.6245 0.1175 0.0000
vt 0.6660 0.0617 0.0000
vt 0.6660 0.1175 0.0000
vt 0.7075 0.0617 0.0000
vt 0.7075 0.1175 0.0000
vt 0.7490 0.0617 0.0000
vt 0.7490 0.1175 0.0000
vt 0.7905 0.0617 0.0000
vt 0.7905 0.1175 0.0000
vt 0.8320 0.0617 0.0000
vt 0.8320 0.1175 0.0000
vt 0.8735 0.0617 0.0000
vt 0.8735 0.1175 0.0000
vt 0.9150 0.0617 0.0000
vt 0.9150 0.1175 0.0000
vt 0.9565 0.0617 0.0000
vt 0.9565 0.1175 0.0000
vt 0.9980 0.0617 0.0000
vt 0.9980 0.1175 0.0000
vt 0.0020 0.2118 0.0000
vt 0.0631 0.2118 0.0000
vt 0.0631 0.2337 0.0000
vt 0.0020 0.2337 0.0000
vt 0.0020 0.0020 0.0000
vt 0.0435 0.0020 0.0000
vt 0.0435 0.0577 0.0000
vt 0.0020 0.0577 0.0000
vt 0.0850 0.0020 0.0000
vt 0.0850 0.0577 0.0000
vt 0.1265 0.0020 0.0000
vt 0.1265 0.0577 0.0000
vt 0.1680 0.0020 0.0000
vt 0.1680 0.0577 0.0000
vt 0.2095 0.0020 0.0000
vt 0.2095 0.0577 0.0000
vt 0.2510 0.0020 0.0000
vt 0.2510 0.0577 0.0000
vt 0.2925 0.0020 0.0000
vt 0.2925 0.0577 0.0000
vt 0.3340 0.0020 0.0000
vt 0.3340 0.0577 0.0000
vt 0.3755 0.0020 0.0000
vt 0.3755 0.0577 0.0000
vt 0.4170 0.0020 0.0000
vt 0.4170 0.0577 0.0000
vt 0.4585 0.0020 0.0000
vt 0.4585 0.0577 0.0000
vt 0.5000 0.0020 0.0000
vt 0.5000 0.0577 0.0000
vt 0.5415 0.0020 0.0000
vt 0.5415 0.0577 0.0000
vt 0.5830 0.0020 0.0000
vt 0.5830 0.0577 0.0000
vt 0.6245 0.0020 0.0000
vt 0.6245 0.0577 0.0000
vt 0.6660 0.0020 0.0000
vt 0.6660 0.0577 0.0000
vt 0.7075 0.0020 0.0000
vt 0.7075 0.0577 0.0000
vt 0.7490 0.0020 0.0000
vt 0.7490 0.0577 0.0000
vt 0.7905 0.0020 0.0000
vt 0.7905 0.0577 0.0000
vt 0.8320 0.0020 0.0000
vt 0.8320 0.0577 0.0000
vt 0.8735 0.0020 0.0000
vt 0.8735 0.0577 0.0000
vt 0.9150 0.0020 0.0000
vt 0.9150 0.0577 0.0000
vt 0.9565 0.0020 0.0000
vt 0.9565 0.0577 0.0000
vt 0.9980 0.0020 0.0000
vt 0.9980 0.0577 0.0000
vt 0.5597 0.1215 0.0000
vt 0.6208 0.1215 0.0000
vt 0.6208 0.1434 0.0000
vt 0.5597 0.1434 0.0000
# 208 texture coords

g Box001
f 1/1/1 2/2/1 3/3/2 
f 3/3/2 4/4/2 1/1/1 
f 4/4/2 3/3/2 5/5/3 
f 5/5/3 6/6/3 4/4/2 
f 6/6/3 5/5/3 7/7/4 
f 7/7/4 8/8/4 6/6/3 
f 8/8/4 7/7/4 9/9/5 
f 9/9/5 10/10/5 8/8/4 
f 10/10/5 9/9/5 11/11/6 
f 11/11/6 12/12/6 10/10/5 
f 12/12/6 11/11/6 13/13/7 
f 13/13/7 14/14/7 12/12/6 
f 14/14/7 13/13/7 15/15/8 
f 15/15/8 16/16/8 14/14/7 
f 16/16/8 15/15/8 17/17/9 
f 17/17/9 18/18/9 16/16/8 
f 18/18/9 17/17/9 19/19/10 
f 19/19/10 20/20/10 18/18/9 
f 20/20/10 19/19/10 21/21/11 
f 21/21/11 22/22/11 20/20/10 
f 22/22/11 21/21/11 23/23/12 
f 23/23/12 24/24/12 22/22/11 
f 24/24/12 23/23/12 25/25/13 
f 25/25/13 26/26/13 24/24/12 
f 26/26/13 25/25/13 27/27/14 
f 27/27/14 28/28/14 26/26/13 
f 28/28/14 27/27/14 29/29/15 
f 29/29/15 30/30/15 28/28/14 
f 30/30/15 29/29/15 31/31/16 
f 31/31/16 32/32/16 30/30/15 
f 32/32/16 31/31/16 33/33/17 
f 33/33/17 34/34/17 32/32/16 
f 34/34/17 33/33/17 35/35/18 
f 35/35/18 36/36/18 34/34/17 
f 36/36/18 35/35/18 37/37/19 
f 37/37/19 38/38/19 36/36/18 
f 38/38/19 37/37/19 39/39/20 
f 39/39/20 40/40/20 38/38/19 
f 40/40/20 39/39/20 41/41/21 
f 41/41/21 42/42/21 40/40/20 
f 42/42/21 41/41/21 43/43/22 
f 43/43/22 44/44/22 42/42/21 
f 44/44/22 43/43/22 45/45/23 
f 45/45/23 46/46/23 44/44/22 
f 46/46/23 45/45/23 47/47/24 
f 47/47/24 48/48/24 46/46/23 
f 48/48/24 47/47/24 2/49/25 
f 2/49/25 1/50/25 48/48/24 
f 49/51/26 50/52/14 51/53/14 
f 51/53/14 52/54/26 49/51/26 
f 50/52/14 53/55/15 54/56/15 
f 54/56/15 51/53/14 50/52/14 
f 53/55/15 55/57/16 56/58/16 
f 56/58/16 54/56/15 53/55/15 
f 55/57/16 57/59/17 58/60/17 
f 58/60/17 56/58/16 55/57/16 
f 57/59/17 59/61/18 60/62/18 
f 60/62/18 58/60/17 57/59/17 
f 59/61/18 61/63/19 62/64/19 
f 62/64/19 60/62/18 59/61/18 
f 61/63/19 63/65/20 64/66/20 
f 64/66/20 62/64/19 61/63/19 
f 63/65/20 65/67/21 66/68/21 
f 66/68/21 64/66/20 63/65/20 
f 65/67/21 67/69/22 68/70/22 
f 68/70/22 66/68/21 65/67/21 
f 67/69/22 69/71/23 70/72/23 
f 70/72/23 68/70/22 67/69/22 
f 69/71/23 71/73/24 72/74/24 
f 72/74/24 70/72/23 69/71/23 
f 71/73/24 73/75/27 74/76/27 
f 74/76/27 72/74/24 71/73/24 
f 73/75/27 75/77/2 76/78/2 
f 76/78/2 74/76/27 73/75/27 
f 75/77/2 77/79/3 78/80/3 
f 78/80/3 76/78/2 75/77/2 
f 77/79/3 79/81/4 80/82/4 
f 80/82/4 78/80/3 77/79/3 
f 79/81/4 81/83/5 82/84/5 
f 82/84/5 80/82/4 79/81/4 
f 81/83/5 83/85/6 84/86/6 
f 84/86/6 82/84/5 81/83/5 
f 83/85/6 85/87/7 86/88/7 
f 86/88/7 84/86/6 83/85/6 
f 85/87/7 87/89/8 88/90/8 
f 88/90/8 86/88/7 85/87/7 
f 87/89/8 89/91/9 90/92/9 
f 90/92/9 88/90/8 87/89/8 
f 89/91/9 91/93/10 92/94/10 
f 92/94/10 90/92/9 89/91/9 
f 91/93/10 93/95/11 94/96/11 
f 94/96/11 92/94/10 91/93/10 
f 93/95/11 95/97/12 96/98/12 
f 96/98/12 94/96/11 93/95/11 
f 95/97/12 97/99/28 98/100/28 
f 98/100/28 96/98/12 95/97/12 
f 1/101/29 4/102/30 50/103/30 
f 50/103/30 49/104/29 1/101/29 
f 4/102/30 6/105/31 53/106/31 
f 53/106/31 50/103/30 4/102/30 
f 6/105/31 8/107/32 55/108/32 
f 55/108/32 53/106/31 6/105/31 
f 8/107/32 10/109/33 57/110/33 
f 57/110/33 55/108/32 8/107/32 
f 10/109/33 12/111/34 59/112/34 
f 59/112/34 57/110/33 10/109/33 
f 12/111/34 14/113/35 61/114/35 
f 61/114/35 59/112/34 12/111/34 
f 14/113/35 16/115/36 63/116/36 
f 63/116/36 61/114/35 14/113/35 
f 16/115/36 18/117/37 65/118/37 
f 65/118/37 63/116/36 16/115/36 
f 18/117/37 20/119/38 67/120/38 
f 67/120/38 65/118/37 18/117/37 
f 20/119/38 22/121/39 69/122/39 
f 69/122/39 67/120/38 20/119/38 
f 22/121/39 24/123/40 71/124/40 
f 71/124/40 69/122/39 22/121/39 
f 24/123/40 26/125/41 73/126/41 
f 73/126/41 71/124/40 24/123/40 
f 26/125/41 28/127/42 75/128/42 
f 75/128/42 73/126/41 26/125/41 
f 28/127/42 30/129/43 77/130/43 
f 77/130/43 75/128/42 28/127/42 
f 30/129/43 32/131/44 79/132/44 
f 79/132/44 77/130/43 30/129/43 
f 32/131/44 34/133/45 81/134/45 
f 81/134/45 79/132/44 32/131/44 
f 34/133/45 36/135/46 83/136/46 
f 83/136/46 81/134/45 34/133/45 
f 36/135/46 38/137/47 85/138/47 
f 85/138/47 83/136/46 36/135/46 
f 38/137/47 40/139/48 87/140/48 
f 87/140/48 85/138/47 38/137/47 
f 40/139/48 42/141/49 89/142/49 
f 89/142/49 87/140/48 40/139/48 
f 42/141/49 44/143/50 91/144/50 
f 91/144/50 89/142/49 42/141/49 
f 44/143/50 46/145/51 93/146/51 
f 93/146/51 91/144/50 44/143/50 
f 46/145/51 48/147/52 95/148/52 
f 95/148/52 93/146/51 46/145/51 
f 48/147/52 1/149/53 97/150/53 
f 97/150/53 95/148/52 48/147/52 
f 1/151/19 2/152/19 98/153/19 
f 98/153/19 97/154/19 1/151/19 
f 2/155/54 47/156/55 96/157/55 
f 96/157/55 98/158/54 2/155/54 
f 47/156/55 45/159/56 94/160/56 
f 94/160/56 96/157/55 47/156/55 
f 45/159/56 43/161/57 92/162/57 
f 92/162/57 94/160/56 45/159/56 
f 43/161/57 41/163/58 90/164/58 
f 90/164/58 92/162/57 43/161/57 
f 41/163/58 39/165/59 88/166/59 
f 88/166/59 90/164/58 41/163/58 
f 39/165/59 37/167/60 86/168/60 
f 86/168/60 88/166/59 39/165/59 
f 37/167/60 35/169/61 84/170/61 
f 84/170/61 86/168/60 37/167/60 
f 35/169/61 33/171/62 82/172/62 
f 82/172/62 84/170/61 35/169/61 
f 33/171/62 31/173/63 80/174/63 
f 80/174/63 82/172/62 33/171/62 
f 31/173/63 29/175/64 78/176/64 
f 78/176/64 80/174/63 31/173/63 
f 29/175/64 27/177/65 76/178/65 
f 76/178/65 78/176/64 29/175/64 
f 27/177/65 25/179/66 74/180/66 
f 74/180/66 76/178/65 27/177/65 
f 25/179/66 23/181/67 72/182/67 
f 72/182/67 74/180/66 25/179/66 
f 23/181/67 21/183/68 70/184/68 
f 70/184/68 72/182/67 23/181/67 
f 21/183/68 19/185/69 68/186/69 
f 68/186/69 70/184/68 21/183/68 
f 19/185/69 17/187/70 66/188/70 
f 66/188/70 68/186/69 19/185/69 
f 17/187/70 15/189/71 64/190/71 
f 64/190/71 66/188/70 17/187/70 
f 15/189/71 13/191/72 62/192/72 
f 62/192/72 64/190/71 15/189/71 
f 13/191/72 11/193/73 60/194/73 
f 60/194/73 62/192/72 13/191/72 
f 11/193/73 9/195/74 58/196/74 
f 58/196/74 60/194/73 11/193/73 
f 9/195/74 7/197/75 56/198/75 
f 56/198/75 58/196/74 9/195/74 
f 7/197/75 5/199/76 54/200/76 
f 54/200/76 56/198/75 7/197/75 
f 5/199/76 3/201/77 51/202/77 
f 51/202/77 54/200/76 5/199/76 
f 3/201/77 2/203/78 52/204/78 
f 52/204/78 51/202/77 3/201/77 
f 2/205/7 1/206/7 49/207/7 
f 49/207/7 52/208/7 2/205/7 
# 196 faces

